<svg xmlns="http://www.w3.org/2000/svg" viewBox="0 0 166.67 166.67"><defs><style>.cls-1{fill:#55a6d9;}.cls-2{fill:#f5a95a;}.cls-3{fill:#c4735b;}.cls-4{fill:#b25d49;}.cls-5{fill:#ba6450;}.cls-6{fill:#201641;}.cls-7{fill:#fca9a1;}.cls-8{fill:#ed8c88;}.cls-9{fill:#e59145;}</style></defs><g id="Capa_2" data-name="Capa 2"><g id="Capa_1-2" data-name="Capa 1"><rect class="cls-1" width="166.67" height="166.67"/><path class="cls-2" d="M47.14,67.38S19.3,75.11,25.84,96.14s13,24.51,13,24.51-7.47,3.48-7.68,6.85,7.68,5.28,7.68,5.28-27.3-3.25-32.57,8.82,3,25.07,3,25.07H159.43S170,154,159.43,132c-11.13-23.18-31.49-23.18-31.49-23.18s5.27-4,2.95-9.59-5.69-1.76-5.69-1.76,12.22-25.56-8.55-26.32Z"/><path class="cls-3" d="M71.2,154.24,70,166.67H96.9l-1.32-13.18c-7.49,2.23-16.16,1.93-24.38.75"/><path class="cls-4" d="M74.33,122.46l-3.07,31.78c8.22,1.18,16.89,1.48,24.38-.75l-3.12-31.08Z"/><path class="cls-4" d="M59.65,96.24c0,5.62-3.25,12.53-7.26,12.53S43,101.86,43,96.24s3.25-10.17,7.27-10.17,9.34,4.55,9.34,10.17"/><path class="cls-4" d="M107.25,96.24c0,5.62,3.25,12.53,7.26,12.53s9.35-6.91,9.35-12.53-3.25-10.17-7.27-10.17-9.34,4.55-9.34,10.17"/><path class="cls-3" d="M98.41,132.71h0a31,31,0,0,1-29.09.19l-.5-.27a30.91,30.91,0,0,1-16.47-25.3l-2-30.09a30.91,30.91,0,0,1,30.85-33h4.56a30.91,30.91,0,0,1,30.85,33l-2,30.36a30.9,30.9,0,0,1-16.12,25.11"/><path class="cls-5" d="M77.38,106.42a12.31,12.31,0,1,1-12.3-12.31,12.3,12.3,0,0,1,12.3,12.31"/><path class="cls-5" d="M114.13,106.42a12.31,12.31,0,1,1-12.31-12.31,12.31,12.31,0,0,1,12.31,12.31"/><path class="cls-6" d="M68.23,89.85c0,2.86-1.11,5.18-2.48,5.18s-2.48-2.32-2.48-5.18,1.11-5.18,2.48-5.18,2.48,2.32,2.48,5.18"/><path class="cls-6" d="M67.08,86c.51-2.7-5.4-1.37-6.58-1.78-2-.7-2.79,2.4-.87,3.17,1.66.67,3.06.19,4.61-.53a8.44,8.44,0,0,1,1.29-.51c.35-.09.76,0,1.1-.14.11,0,.42,0,.45-.21"/><path class="cls-6" d="M98.67,89.85c0,2.86,1.11,5.18,2.48,5.18s2.48-2.32,2.48-5.18-1.11-5.18-2.48-5.18S98.67,87,98.67,89.85"/><path class="cls-6" d="M99.91,86.06a10.12,10.12,0,0,0,1.46.25,15.27,15.27,0,0,1,2.13.9,4.71,4.71,0,0,0,3.77.14c1.92-.77,1.17-3.87-.87-3.17-1.75.6-3.73-.51-5.45.3-.23.1-1.84,1.25-1,1.58"/><path class="cls-4" d="M83.05,87.14c-2.46,4-3.31,9.38-3,14.06.18,2.58,1.62,7.15,5,6.16a.92.92,0,0,0,.66-.65c.49-2.42-1.48-5.31-1.63-7.84a113.15,113.15,0,0,1-.18-11.5.47.47,0,0,0-.87-.23"/><path class="cls-7" d="M75.15,114.22s2.71-2,8.65-2.19,8,2.19,8,2.19-1,7.27-9.32,6.35c-7.47-.83-7.28-6.35-7.28-6.35"/><path class="cls-8" d="M73.74,114a15.8,15.8,0,0,0,18.81.12c.18-.13.07-.52-.16-.42-6,2.41-12.63,3.33-18.57.14-.09-.05-.17.09-.08.16"/><path class="cls-2" d="M104,56s-2.18,16.11,11.22,40.89c0,0,5.7-32.61,1.4-40.89-2.52-4.84-8.88-4-8.88-4Z"/><path class="cls-2" d="M51.35,92.46S61,88.19,57.2,71.09c0,0,33.6,2.16,46.83-15.06,0,0,4.46.38,3.74-4,0,0-1.2-32.16-30.39-30.68S49.25,56.9,49.25,56.9s-11.81.77-10.33,5.42a13.94,13.94,0,0,0,5.06,7Z"/><path class="cls-2" d="M59.07,80.47c1.73.31,3.35-.19,5.07-.4a38.72,38.72,0,0,1,6.55.05c2,.11,1.91-2.84,0-3.09-3.51-.47-9.47,0-11.76,3.09a.24.24,0,0,0,.14.35"/><path class="cls-2" d="M106.92,78.24c-1-2.29-4.94-2.82-7.15-3-2-.17-5.75-.53-6.63,1.75a.44.44,0,0,0,.12.46c1.6,1.32,4.15.21,6.09.33,2.32.13,5.06,1.67,7.29,1.16a.48.48,0,0,0,.28-.69"/><path class="cls-9" d="M35.8,131.55c1.56,1.29,11.36,6.71,11.72,2s-12.81-1.46-15-.49a.28.28,0,0,0,.14.52c3.41-.24,7.26-1.8,10.69-1.09l1.08,0,.45,1.44a18.52,18.52,0,0,1-3.21-.43,24.48,24.48,0,0,1-5.86-2.07s-.11,0-.06.08"/><path class="cls-9" d="M35.82,122.37c1.38-.41,2.77-.8,4.17-1.14l2.1-.49a8.12,8.12,0,0,1,2.44-.62c.65-.24.56,0-.28.76a4.23,4.23,0,0,1-1.66.06,6.89,6.89,0,0,1-2.5-.75,20.49,20.49,0,0,1-3.64-2.71.47.47,0,0,0-.67.66,11.61,11.61,0,0,0,6,3.66c1.29.24,3.79.32,4.43-1.18.71-1.68-1.3-1.48-2.26-1.26a50.53,50.53,0,0,0-8.16,2.92s0,.1,0,.09"/><path class="cls-9" d="M118,70.13a29.89,29.89,0,0,1-.42,3c-.09.5-.07,1.91-.5,2.29l-1.42.07a1.51,1.51,0,0,1,.28-1.6A3,3,0,0,1,117,73a10.81,10.81,0,0,1,2.53-1,.24.24,0,0,0-.13-.46c-1.38.32-3.15.81-4.1,2a2.09,2.09,0,0,0,.33,3.21,1.75,1.75,0,0,0,2.46-1.09c.74-1.66.44-3.71.2-5.44,0-.17-.27-.11-.28,0"/><path class="cls-9" d="M125.32,96.81c-.63,1.25-1.4,2.4-1.9,3.7l1.1-.14A2.22,2.22,0,0,1,127,97.18c.24,0,.34-.31.1-.36a3,3,0,0,0-3.68,4,.61.61,0,0,0,1.1.14,12,12,0,0,0,1.06-4.06c0-.14-.18-.26-.26-.1"/><path class="cls-9" d="M128.2,108a13.68,13.68,0,0,1-1.67,1.81c-.17.14-1.5,1.19-1.84,1-.84-.47.49-.91.84-1a15.82,15.82,0,0,1,5.86,0c.32,0,.37-.47.07-.55a13.9,13.9,0,0,0-5.72-.67c-1.09.16-3.16.7-3.14,2.2,0,1.29,1.47,1.41,2.41,1.1,1.68-.57,2.73-2.17,3.63-3.59.16-.27-.24-.6-.44-.35"/><path class="cls-9" d="M38.78,62.19c1.17,6.5,7.42,8,13.19,9a56.6,56.6,0,0,0,23.64-.86c.2,0,.17-.4,0-.37a88.09,88.09,0,0,1-16.87.67c-6.71-.42-17-1-19.82-8.45a0,0,0,1,0-.09,0"/></g></g></svg>