<svg xmlns="http://www.w3.org/2000/svg" viewBox="0 0 166.67 166.67"><defs><style>.cls-1{fill:#ed9cab;}.cls-2{fill:#00122b;}.cls-3{fill:#dd8558;}.cls-4{fill:#ea9363;}.cls-5{fill:#ce744d;}.cls-6{fill:#201641;}.cls-7{fill:#f3f3f6;}.cls-8{fill:#f46772;}.cls-9{fill:#0e2949;}</style></defs><g id="Capa_2" data-name="Capa 2"><g id="Capa_1-2" data-name="Capa 1"><rect class="cls-1" width="166.67" height="166.67"/><path class="cls-2" d="M42.33,88.65s-23.95,41.42,32.12,61H95.38s38.1-5.93,28.78-44.94-81.83-16.1-81.83-16.1"/><path class="cls-3" d="M97.16,159.17l-3.54-36.71-18.2,0-3.11,31c6.23,6,16.42,8.14,24.85,5.74"/><path class="cls-4" d="M72.31,153.43,71,166.67h26.9l-.72-7.5c-8.43,2.4-18.62.26-24.85-5.74"/><path class="cls-3" d="M113,105c0,6.69,5,12.12,11.19,12.12s11.18-5.43,11.18-12.12-2.57-12.56-8.75-12.56S113,98.28,113,105"/><path class="cls-3" d="M55.89,105c0,6.69-5,12.12-11.18,12.12S33.52,111.66,33.52,105s2.58-12.56,8.76-12.56S55.89,98.28,55.89,105"/><path class="cls-4" d="M75.18,145.54h0a37.41,37.41,0,0,0,46.47-40l-3.06-30a34.34,34.34,0,0,0-68.32,0l-3.06,30a37.42,37.42,0,0,0,28,40"/><path class="cls-5" d="M45.22,96.87c-2.52-.35-5-.55-7.14,1.09a4.66,4.66,0,0,0-1.82,2.48,3,3,0,0,0,.58,2.27.61.61,0,0,0,1,0c.22-.37.65-.57,1-.92a6.42,6.42,0,0,1,1.42-1.43,9.94,9.94,0,0,1,4.6-1c1.36-.06,1.84-2.3.34-2.52"/><path class="cls-5" d="M122.66,98.86a14.69,14.69,0,0,1,4.39.34c1.32.45,2.08,1.49,3.27,2.09a1.38,1.38,0,0,0,2-.82c.62-2.3-1.74-3.68-3.59-4.33-2.12-.75-4.79-.86-6.67.52a1.19,1.19,0,0,0,.59,2.2"/><path class="cls-3" d="M77.94,110.7A14.28,14.28,0,1,1,63.67,96.43,14.27,14.27,0,0,1,77.94,110.7"/><path class="cls-3" d="M120.08,110.7A14.28,14.28,0,1,1,105.8,96.43a14.28,14.28,0,0,1,14.28,14.27"/><path class="cls-6" d="M69.52,98.12c0,2.86-1.11,5.18-2.48,5.18s-2.48-2.32-2.48-5.18,1.11-5.18,2.48-5.18,2.48,2.32,2.48,5.18"/><path class="cls-6" d="M68.37,94.23c.51-2.7-5.4-1.37-6.59-1.78-2-.7-2.79,2.4-.87,3.17,1.67.67,3.07.19,4.61-.53a8.55,8.55,0,0,1,1.3-.51c.35-.09.76,0,1.1-.14.11,0,.42,0,.45-.21"/><path class="cls-6" d="M100,98.12c0,2.86,1.11,5.18,2.48,5.18s2.48-2.32,2.48-5.18-1.11-5.18-2.48-5.18S100,95.26,100,98.12"/><path class="cls-6" d="M101.2,94.33a10,10,0,0,0,1.45.25,14.83,14.83,0,0,1,2.13.91,4.78,4.78,0,0,0,3.78.13c1.91-.77,1.16-3.87-.87-3.17-1.75.61-3.74-.51-5.46.3-.22.1-1.84,1.25-1,1.58"/><path class="cls-5" d="M84.48,93.49c-2.2,2.62-1.93,7.23-2.16,10.5-.16,2.25-.76,6.83,2.81,6.52a1.3,1.3,0,0,0,1.26-1.26c.18-2.61-.19-5.52-.26-8.15-.07-2.45.06-5.53-1.43-7.58a.14.14,0,0,0-.22,0"/><path class="cls-7" d="M95.14,115.54a1.41,1.41,0,0,0-2-1.17c-7.18,3.57-12.6,3.34-15.4,2.8A1.41,1.41,0,0,0,76.09,119a16.36,16.36,0,0,0,1.16,2.86c5.9-1,12.08-1.07,17.77-2.66a19.24,19.24,0,0,0,.12-3.64"/><path class="cls-2" d="M77.25,121.84a9.46,9.46,0,0,0,9.91,5.35c5.56-.55,7.37-4.48,7.86-8-5.69,1.59-11.87,1.69-17.77,2.66"/><path class="cls-8" d="M79.31,124.65a9.31,9.31,0,0,0,7.85,2.54,8,8,0,0,0,7.39-5.87c-5.45-.47-11.21.27-15.24,3.33"/><path class="cls-2" d="M108.23,64.81s1.86,30.84,13.17,38.2c0,0-.68-9.9,5.19-10.6,0,0,11.28-43.38-14-33.07Z"/><path class="cls-2" d="M58.32,61.54S45.43,51.87,42.2,66.2a52.92,52.92,0,0,0,1.34,26.89s4.69,2.38,4.52,4.14c0,0,13.92-22.58,10.26-35.69"/><path class="cls-2" d="M112.63,59.34s-34.39-40.65-71.46-25c-4.55,1.92-12.78,19.69,13.59,27.29,0,0-3.51,17.23,12.28,10.49s22.28-7.46,22.28-7.46S76.65,82.34,91.53,78.57s16.7-13.76,16.7-13.76Z"/><path class="cls-2" d="M62.11,87.11c1.3.28,2.73-.29,4-.57A21.28,21.28,0,0,1,71.35,86c2.19.06,2.17-3.5,0-3.37-2.8.17-8.23.7-9.55,3.71a.53.53,0,0,0,.31.76"/><path class="cls-2" d="M106.91,86.35c-1.32-3-6.75-3.54-9.56-3.71-2.16-.13-2.18,3.43,0,3.37a21.36,21.36,0,0,1,5.23.53c1.28.28,2.71.85,4,.57a.53.53,0,0,0,.31-.76"/><path class="cls-9" d="M41.7,38.12c-6.77,8.47,2.29,18.11,11.11,19,.57,0,.57-.74.12-.92-7-2.79-15.27-9.1-10.64-17.61.2-.36-.31-.8-.59-.46"/><path class="cls-9" d="M55.67,60.46c-2.85,4.81-3.75,14.43,4.16,13.7,5.25-.48,11.16-3.29,16-5.15,5.29-2,11-4,15.55-7.46.44-.33.21-1.11-.4-.94-7.4,2-14.35,5.88-21.64,8.35-1.7.58-3.4,1.13-5.12,1.65-1.14.35-2.29.68-3.44,1L56,70.12c-1.55-2,.22-7.24-.25-9.65a0,0,0,0,0-.09,0"/><path class="cls-9" d="M88.7,70.07c-1.89,1.51-3.9,4.2-3.38,6.75.11.59.9.59,1.19.15a12.84,12.84,0,0,0,1.16-3.1c.41-1.17.89-2.39,1.4-3.52a.23.23,0,0,0-.37-.28"/></g></g></svg>