<svg xmlns="http://www.w3.org/2000/svg" viewBox="0 0 166.67 166.67"><defs><style>.cls-1{fill:#f0c145;}.cls-2{fill:#ce7f63;}.cls-3{fill:#bf6d55;}.cls-4{fill:#c4735b;}.cls-5{fill:#00122b;}.cls-6{fill:#c16f56;}.cls-7{fill:#b25d49;}.cls-8{fill:#07203e;}</style></defs><g id="Capa_2" data-name="Capa 2"><g id="Capa_1-2" data-name="Capa 1"><rect class="cls-1" width="166.67" height="166.67"/><path class="cls-2" d="M95.38,152.09l1.4,14.56H69.88l.27-2.63c9.91-.19,19.41-3.74,25.23-11.93"/><path class="cls-3" d="M92.52,122.44l2.86,29.65c-5.82,8.19-15.32,11.74-25.23,11.93l4.18-41.62Z"/><path class="cls-3" d="M111.87,105c0,6.69,5,12.11,11.19,12.11s11.18-5.42,11.18-12.11-2.57-12.57-8.75-12.57S111.87,98.27,111.87,105"/><path class="cls-3" d="M54.79,105c0,6.69-5,12.11-11.18,12.11S32.42,111.65,32.42,105,35,92.39,41.18,92.39,54.79,98.27,54.79,105"/><path class="cls-2" d="M74.08,145.53h0a37.41,37.41,0,0,0,46.47-40l-3-30a34.34,34.34,0,0,0-68.33,0l-3.06,30a37.42,37.42,0,0,0,28,40"/><path class="cls-4" d="M90.13,109.92A14.28,14.28,0,1,0,104.4,95.64a14.27,14.27,0,0,0-14.27,14.28"/><path class="cls-4" d="M48,109.92A14.28,14.28,0,1,0,62.27,95.64,14.27,14.27,0,0,0,48,109.92"/><path class="cls-5" d="M98.55,92.84C98.55,95.7,99.66,98,101,98s2.48-2.32,2.48-5.18-1.11-5.18-2.48-5.18S98.55,90,98.55,92.84"/><path class="cls-5" d="M68.11,92.84C68.11,95.7,67,98,65.64,98s-2.48-2.32-2.48-5.18,1.11-5.18,2.48-5.18,2.47,2.32,2.47,5.18"/><path class="cls-6" d="M109.88,81.57a.05.05,0,1,0,0-.1.05.05,0,0,0,0,.1"/><path class="cls-7" d="M44.82,99.6a5.85,5.85,0,0,0-5,.63c-1.39,1-1.56,2.39-2.25,3.79-.52,1.08-1.88.39-2-.54-.27-2.08,1.66-4.31,3.36-5.25a6.23,6.23,0,0,1,6.42.25c.57.35.2,1.33-.47,1.12"/><path class="cls-7" d="M121.68,99c1.58-1.55,3.39-2.67,5.68-2.49a4.68,4.68,0,0,1,4.29,2.8c.3.73-.7,1-1.17.68-2.61-2.06-5.4-1.87-8.23-.25a.47.47,0,0,1-.57-.74"/><path class="cls-7" d="M126.36,98a6.81,6.81,0,0,1,.82,6c-.49,1.64-1.71,4.14-3.75,4a.63.63,0,0,1-.59-.77c.21-1.45,1.62-2.59,2.15-4a10.67,10.67,0,0,0,.59-5c-.06-.45.58-.53.78-.22"/><path class="cls-7" d="M41.76,99a24.43,24.43,0,0,0-.07,5.13,19.71,19.71,0,0,0,1.19,4.3.81.81,0,0,1-1.17.9c-3.3-2.07-2.13-7.81-.72-10.65.23-.47.83-.11.77.32"/><path class="cls-3" d="M85.61,86.24c2.06,6.79,2.6,14,3.16,21s-11.23,7-10.88,0,.71-14.19,2.57-21a2.69,2.69,0,0,1,5.15,0"/><path class="cls-7" d="M72.64,116.61c1,3.44,5,5.16,8.22,6.09a14.83,14.83,0,0,0,16.34-6.13c.47-.75-.44-1.54-1.16-1.16-5.5,2.92-9.93,5.43-16.3,3.6a71.42,71.42,0,0,1-6.87-2.63c-.13,0-.27.11-.23.23"/><path class="cls-8" d="M57.53,81.66c1.92.85,4.16,0,6-.51a80.29,80.29,0,0,1,8.16-1.68c4.39-.77,2.53-7.45-1.84-6.69-3.44.6-7.27,1.29-10.17,3.4-.77.56-4.28,4.56-2.2,5.48"/><path class="cls-8" d="M108.32,81.24c.72-2.38-1.71-4.67-3.59-5.66a29.59,29.59,0,0,0-9.1-2.8c-4.37-.76-6.24,5.92-1.84,6.69,3.14.55,6.23,1.24,9.31,2.06,1,.25,4.73,1.29,5.22-.29"/><path class="cls-4" d="M79.47,48.82a1.11,1.11,0,0,0,0-2.22,1.11,1.11,0,0,0,0,2.22"/><path class="cls-4" d="M87.06,48.82a1.11,1.11,0,0,0,0-2.22,1.11,1.11,0,0,0,0,2.22"/><path class="cls-4" d="M83.36,52.48a1.12,1.12,0,0,0,0-2.23,1.12,1.12,0,0,0,0,2.23"/><path class="cls-4" d="M72.71,52.48a1.12,1.12,0,0,0,0-2.23,1.12,1.12,0,0,0,0,2.23"/><path class="cls-4" d="M94.15,51.36a1.11,1.11,0,0,0,0-2.22,1.11,1.11,0,0,0,0,2.22"/></g></g></svg>