<svg xmlns="http://www.w3.org/2000/svg" viewBox="0 0 166.67 166.67"><defs><style>.cls-1{fill:#89e8e0;}.cls-2{fill:#c94e4b;}.cls-3{fill:#efaf9d;}.cls-4{fill:#e59f8f;}.cls-5{fill:#d88d80;}.cls-6{fill:#ea9581;}.cls-7{fill:#201641;}.cls-8{fill:#e07c68;}.cls-9{fill:#d6415a;}.cls-10{fill:#c13352;}.cls-11{fill:#bf3c3c;}</style></defs><g id="Capa_2" data-name="Capa 2"><g id="Capa_1-2" data-name="Capa 1"><rect class="cls-1" width="166.67" height="166.67"/><path class="cls-2" d="M102.52,47.85s6.22-1.43,14.35,4.5c16.57,12.1,3.55,104.32,3.55,104.32H36.5s-9-92.2,8-110.91,58,2.09,58,2.09"/><path class="cls-2" d="M123.73,158.29c2.12-10.33,1.69-21.41,1.35-31.91s-.61-21.48-2.71-31.94c-.2-1-1.72-.74-1.75.24-.26,10.56.74,21.14.95,31.7s-.4,21.31,1,31.75c.08.61,1,.9,1.19.16"/><path class="cls-2" d="M120.5,98.45c7.66,0,7.67-11.9,0-11.9s-7.68,11.9,0,11.9"/><path class="cls-2" d="M102.69,49.19a13.71,13.71,0,0,1,2.87-2.72,14.17,14.17,0,0,0,2.9-2,.48.48,0,0,0-.34-.8c-2.59-.1-5.06,2.86-6.39,4.79-.39.56.52,1.28,1,.74"/><path class="cls-2" d="M102.33,48.63a10.67,10.67,0,0,0,.51-3.26c0-.95.06-2.13-.72-2.78a.66.66,0,0,0-1,.13c-.47.89-.06,1.72.09,2.66.17,1.1.48,2.16.69,3.25a.24.24,0,0,0,.46,0"/><path class="cls-3" d="M68.21,156.67l-1,10h26.9l-.8-7.93L91.7,159c-7.5,1.36-16.38,1.33-23.49-2.31"/><path class="cls-4" d="M71.51,122.42l-3.3,34.25c7.11,3.64,16,3.67,23.49,2.31l1.65-.28L89.7,122.38Z"/><path class="cls-4" d="M52.16,104.93c0,6.7-5,12.12-11.19,12.12s-11.18-5.42-11.18-12.12,2.57-12.56,8.75-12.56,13.62,5.87,13.62,12.56"/><path class="cls-4" d="M109.24,104.93c0,6.7,5,12.12,11.18,12.12s11.19-5.42,11.19-12.12S129,92.37,122.85,92.37s-13.61,5.87-13.61,12.56"/><path class="cls-5" d="M119.21,99.57a5.89,5.89,0,0,1,5.05.64c1.39,1,1.56,2.39,2.25,3.79.52,1.08,1.88.39,2-.54.27-2.08-1.66-4.31-3.36-5.25a6.23,6.23,0,0,0-6.42.25c-.57.35-.2,1.33.47,1.11"/><path class="cls-5" d="M42.35,99a7.18,7.18,0,0,0-5.68-2.49,4.69,4.69,0,0,0-4.29,2.79c-.3.74.7,1.06,1.17.69,2.61-2.06,5.4-1.87,8.23-.25a.47.47,0,0,0,.57-.74"/><path class="cls-5" d="M37.67,98a6.8,6.8,0,0,0-.82,6c.49,1.63,1.71,4.13,3.75,4a.63.63,0,0,0,.59-.77c-.21-1.46-1.62-2.59-2.15-4a10.71,10.71,0,0,1-.59-5c.06-.44-.58-.53-.78-.21"/><path class="cls-5" d="M122.27,99a24.43,24.43,0,0,1,.07,5.13,19.62,19.62,0,0,1-1.19,4.29.8.8,0,0,0,1.17.9c3.3-2.06,2.13-7.8.72-10.65-.23-.46-.83-.1-.77.33"/><path class="cls-3" d="M80.7,146.13h0a34.49,34.49,0,0,1-34.49-34.49V79.06a34.49,34.49,0,1,1,69,0v32.58A34.49,34.49,0,0,1,80.7,146.13"/><path class="cls-6" d="M74.23,110.78A13.75,13.75,0,1,1,60.48,97a13.74,13.74,0,0,1,13.75,13.75"/><path class="cls-6" d="M114.83,110.78A13.76,13.76,0,1,1,101.08,97a13.75,13.75,0,0,1,13.75,13.75"/><path class="cls-7" d="M66.12,94.33c0,2.75-1.07,5-2.39,5s-2.39-2.24-2.39-5,1.07-5,2.39-5,2.39,2.24,2.39,5"/><path class="cls-7" d="M65,90.58c.49-2.6-5.2-1.32-6.34-1.71-2-.68-2.69,2.31-.84,3,1.6.64,3,.18,4.44-.51a7,7,0,0,1,1.24-.49c.34-.09.74,0,1.07-.14.1,0,.4,0,.43-.2"/><path class="cls-7" d="M95.44,94.33c0,2.75,1.07,5,2.39,5s2.39-2.24,2.39-5-1.07-5-2.39-5-2.39,2.24-2.39,5"/><path class="cls-7" d="M96.64,90.67a9.32,9.32,0,0,0,1.4.25,12.85,12.85,0,0,1,2.06.87,4.54,4.54,0,0,0,3.63.13c1.85-.74,1.12-3.73-.84-3-1.69.58-3.6-.5-5.25.28-.22.1-1.77,1.21-1,1.52"/><path class="cls-8" d="M80.89,90.92a24.61,24.61,0,0,0-3.56,11.51c-.06,2.77-.07,7,2.83,8.26a.62.62,0,0,0,.9-.36c.93-2.63-.62-5.72-.58-8.51,0-3.61.58-7.2.76-10.81a.19.19,0,0,0-.35-.09"/><path class="cls-2" d="M86.69,51.83c0-.72,0-1.44-.07-2.16,0,.72,0,1.44.07,2.16"/><path class="cls-2" d="M102.52,47.85S77.69,34.54,63.73,42.59,41.13,57.25,46.2,96.5c0,0,1.71-12.48,15.69-19a28.81,28.81,0,0,0,3.73-14.79c0,4.49,0,9.55-1.68,13.91a45.57,45.57,0,0,1,14.14-2.94c4.77-6.47,8.56-13.74,8.61-21.81,0-.72,0-.72,0,0,.47,8,3.46,15.62,7.07,22.85a32.35,32.35,0,0,1,11.08,4.44c-.62-4.82.19-9.63-2.22-14.45,4.66,6.53,8.46,13.06,8.94,21.21a25.69,25.69,0,0,1,3.63,10s10.63-34.72-12.67-48"/><path class="cls-2" d="M55.64,83.76a18.19,18.19,0,0,0,3.21-1.24,11.78,11.78,0,0,1,3.57-.74A1.58,1.58,0,1,0,62,78.66c-2.59.51-6.06,1.73-7.1,4.35-.19.48.34.83.75.75"/><path class="cls-2" d="M104.55,80.64c-.79-1.11-2-1.47-3.22-2a10.93,10.93,0,0,0-3.88-1.15c-1.7-.05-1.89,2.34-.39,2.85,1.16.4,2.37.62,3.54,1A7.11,7.11,0,0,0,104,82a.9.9,0,0,0,.54-1.31"/><path class="cls-9" d="M74.23,118.33s4.2-4.42,7.72-4.57,8.14,2.68,8.14,2.68-7.08,13-15.86,1.89"/><path class="cls-10" d="M73.08,117.62c1.48,1.82,5.37,1.25,7.36,1.18,3.34-.11,8-.3,10.75-2.25.17-.12.14-.46-.12-.44-3.25.3-6.46,1.11-9.74,1.4-2.41.22-5.84.77-8.21,0-.05,0-.07,0,0,.08"/><path class="cls-11" d="M65.16,76.06c.89-3.93,2.67-6.1,2.19-10.27a49.85,49.85,0,0,0-2.94-12.65c-.23-.59-1.25-.58-1.2.16.27,3.66,1.07,7.18,1.66,10.78.7,4.26-.55,7.69-.72,11.84a.52.52,0,0,0,1,.14"/><path class="cls-11" d="M85.92,46.92C84.13,55.71,87.35,66.83,92.58,74c.4.55,1.48.25,1.2-.51-1.62-4.35-3.57-8.54-4.78-13s-1.71-9.06-2.9-13.53c0-.08-.16-.09-.18,0"/><path class="cls-11" d="M98.29,57.41c2.37,6.64,5,12.19,5.08,19.43a.52.52,0,0,0,1,.14c2.06-7.27-1.88-13.79-5.57-19.79-.16-.26-.63-.09-.52.22"/><path class="cls-11" d="M46.46,98.9c.43-9.43,0-19.36-.49-28.79,0-.55-.89-.74-1-.14-1.89,9.25-1.86,19.91.76,29a.38.38,0,0,0,.74-.1"/></g></g></svg>