<svg xmlns="http://www.w3.org/2000/svg" viewBox="0 0 166.67 166.67"><defs><style>.cls-1{fill:#204b98;}.cls-2{fill:#e59f8f;}.cls-3{fill:#dd9185;}.cls-4{fill:#d17e75;}.cls-5{fill:#201641;}.cls-6{fill:#ce7c74;}.cls-7{fill:#3e92c4;}.cls-8{fill:#2d88b5;}.cls-9{fill:#61b3db;}</style></defs><g id="Capa_2" data-name="Capa 2"><g id="Capa_1-2" data-name="Capa 1"><rect class="cls-1" width="166.67" height="166.67"/><path class="cls-2" d="M70.84,156.71l-1,10h26.9L96,158.74l-1.66.27c-7.49,1.37-16.37,1.33-23.49-2.3"/><path class="cls-3" d="M74.07,122.46l-3.31,34.25c7.12,3.63,16,3.67,23.49,2.3l1.66-.27-3.65-36.33Z"/><path class="cls-3" d="M54.79,105c0,6.69-5,12.12-11.18,12.12S32.42,111.66,32.42,105,35,92.41,41.18,92.41,54.79,98.28,54.79,105"/><path class="cls-3" d="M111.87,105c0,6.69,5,12.12,11.19,12.12s11.18-5.43,11.18-12.12-2.57-12.56-8.75-12.56S111.87,98.28,111.87,105"/><path class="cls-4" d="M121.85,99.61a5.89,5.89,0,0,1,5.05.64c1.39,1,1.56,2.38,2.25,3.78.52,1.08,1.88.39,2-.54.28-2.07-1.65-4.3-3.35-5.25a6.22,6.22,0,0,0-6.42.25.62.62,0,0,0,.47,1.12"/><path class="cls-4" d="M45,99.05a7.22,7.22,0,0,0-5.68-2.5A4.67,4.67,0,0,0,35,99.35c-.3.73.7,1.06,1.17.68,2.61-2.06,5.4-1.86,8.23-.25a.47.47,0,0,0,.57-.73"/><path class="cls-4" d="M40.3,98a6.83,6.83,0,0,0-.81,6c.49,1.63,1.7,4.13,3.75,3.95a.63.63,0,0,0,.59-.77c-.21-1.45-1.62-2.59-2.16-3.94a10.85,10.85,0,0,1-.58-5c.06-.45-.58-.53-.79-.21"/><path class="cls-4" d="M124.91,99a23.78,23.78,0,0,1,.06,5.13,19.15,19.15,0,0,1-1.18,4.3.8.8,0,0,0,1.17.9c3.3-2.07,2.13-7.81.72-10.65-.24-.47-.83-.11-.77.32"/><path class="cls-2" d="M101.32,135.46h0a34.3,34.3,0,0,1-35.35.16l-.35-.21a34.32,34.32,0,0,1-16.78-29.49V71.17A34.32,34.32,0,0,1,83.16,36.86h.35a34.32,34.32,0,0,1,34.32,34.31v35a34.33,34.33,0,0,1-16.51,29.33"/><path class="cls-4" d="M82.5,85.57c-1.59,4.19-.91,9.45-.66,13.83a1.87,1.87,0,1,0,3.68-.5c-.6-4.3-.46-9.29-2.11-13.33a.48.48,0,0,0-.91,0"/><path class="cls-3" d="M77.52,102.87A14.22,14.22,0,1,1,63.3,88.65a14.22,14.22,0,0,1,14.22,14.22"/><path class="cls-3" d="M117.59,102.87a14.22,14.22,0,1,1-14.22-14.22,14.22,14.22,0,0,1,14.22,14.22"/><path class="cls-5" d="M69,87.68c0,2.69-1,4.87-2.33,4.87s-2.33-2.18-2.33-4.87,1-4.87,2.33-4.87S69,85,69,87.68"/><path class="cls-5" d="M97.63,87.68c0,2.69,1,4.87,2.33,4.87s2.33-2.18,2.33-4.87-1.05-4.87-2.33-4.87S97.63,85,97.63,87.68"/><path class="cls-6" d="M79.62,109c1.8,2.84,6.72.79,9-.55s6.34-5,4.86-8a1.08,1.08,0,0,0-1.22-.49c-1,.37-1.25.72-1.83,1.66A11.54,11.54,0,0,1,87.56,105c-2.33,1.78-4.89,2.08-7.55,3a.67.67,0,0,0-.39,1"/><path class="cls-7" d="M107.82,58.81s-6.46,11.14,9.66,45.77c0,0,.91-10.63,7-12.12,0,0,3.3-44.41-11.91-39.54Z"/><path class="cls-7" d="M58.43,58.81S64.9,70,48.78,104.58c0,0-.92-10.63-7-12.12,0,0-3.3-44.41,11.9-39.54Z"/><path class="cls-7" d="M107.34,60.06S100.77,40,86.37,37,69.49,60.63,57,57C48.3,54.48,46.66,45.72,46.47,40.57A1.1,1.1,0,0,1,48,39.5c.78.35,2,.36,3.88-.39,5.67-2.27,16.38-15.58,38.78-13.6s21.93,27.41,21.93,27.41Z"/><path class="cls-8" d="M107.34,60.06s-12-6.68-21-7.51c-4.05-.38-8.2,1-10.93,2.24a28.22,28.22,0,0,0-4,2.2c-2.33,1.54-9.25,5.17-15.82-.43,0,0,7-1.21,8.71-4.54s7.34-22.14,28.17-14,14.79,22,14.79,22"/><path class="cls-8" d="M108.45,59.79a15,15,0,0,0,2.77-2.56A5.22,5.22,0,0,0,112.65,54a.38.38,0,0,0-.56-.32,8.53,8.53,0,0,0-2,2.35A30.72,30.72,0,0,1,107.83,59c-.39.4.14,1.18.62.81"/><path class="cls-9" d="M50.82,55.49a5.87,5.87,0,0,0-4.54,2.24c-1.09,1.32-2.09,3.58-1.25,5.21a1.2,1.2,0,0,0,1.34.55,1.22,1.22,0,0,0,.87-1.15,6.52,6.52,0,0,1,.49-2.48A12,12,0,0,1,51,56c.2-.16,0-.48-.2-.48"/><path class="cls-7" d="M64,79.24c1.45-.61,3-1.64,4.65-1.64,3,0,3-4.87,0-4.67-2.83.2-4.81,1.61-6.81,3.51-1.59,1.5.43,3.53,2.16,2.8"/><path class="cls-7" d="M106.17,76.44c-2-1.89-4-3.31-6.81-3.51s-3,4.67,0,4.67c1.6,0,3.21,1,4.65,1.64,1.72.73,3.77-1.28,2.16-2.8"/></g></g></svg>