<svg xmlns="http://www.w3.org/2000/svg" viewBox="0 0 166.67 166.67"><defs><style>.cls-1{fill:#d5ecfa;}.cls-2{fill:#b25d49;}.cls-3{fill:#a04f3f;}.cls-4{fill:#8e4033;}.cls-5{fill:#a85342;}.cls-6{fill:#201641;}.cls-7{fill:#00122b;}.cls-8{fill:#913f31;}</style></defs><g id="Capa_2" data-name="Capa 2"><g id="Capa_1-2" data-name="Capa 1"><rect class="cls-1" width="166.67" height="166.67"/><path class="cls-2" d="M70.26,156.71l-1,10H96.2l-.8-7.93-1.66.27c-7.49,1.37-16.37,1.33-23.48-2.3"/><path class="cls-3" d="M73.56,122.46l-3.3,34.25c7.11,3.63,16,3.66,23.48,2.3l1.66-.27-3.65-36.33Z"/><path class="cls-3" d="M54.2,105c0,6.69-5,12.12-11.18,12.12S31.83,111.66,31.83,105s2.58-12.56,8.76-12.56S54.2,98.28,54.2,105"/><path class="cls-3" d="M111.28,105c0,6.69,5,12.12,11.19,12.12s11.19-5.43,11.19-12.12-2.58-12.56-8.76-12.56S111.28,98.28,111.28,105"/><path class="cls-4" d="M121.26,99.61a5.89,5.89,0,0,1,5,.64c1.39,1,1.56,2.38,2.25,3.78.52,1.08,1.88.39,2-.54.28-2.07-1.65-4.3-3.35-5.25a6.22,6.22,0,0,0-6.42.25.62.62,0,0,0,.47,1.12"/><path class="cls-4" d="M44.4,99.05a7.22,7.22,0,0,0-5.68-2.5,4.67,4.67,0,0,0-4.29,2.8c-.3.73.7,1.06,1.17.68,2.61-2.06,5.4-1.87,8.23-.25a.47.47,0,0,0,.57-.73"/><path class="cls-4" d="M39.71,98a6.83,6.83,0,0,0-.81,6c.49,1.63,1.71,4.13,3.75,3.95a.63.63,0,0,0,.59-.77c-.21-1.45-1.62-2.59-2.16-3.94a10.85,10.85,0,0,1-.58-5c.06-.45-.58-.53-.79-.21"/><path class="cls-4" d="M124.32,99a23.78,23.78,0,0,1,.06,5.13,19.15,19.15,0,0,1-1.18,4.3.8.8,0,0,0,1.17.9c3.3-2.07,2.13-7.81.72-10.65-.24-.47-.83-.11-.77.32"/><path class="cls-2" d="M82.74,146.16h0a34.49,34.49,0,0,1-34.49-34.49V79.09a34.5,34.5,0,0,1,69,0v32.58a34.5,34.5,0,0,1-34.5,34.49"/><path class="cls-5" d="M76.36,114A13.41,13.41,0,1,1,63,100.57,13.4,13.4,0,0,1,76.36,114"/><path class="cls-5" d="M115.94,114a13.41,13.41,0,1,1-13.41-13.41A13.41,13.41,0,0,1,115.94,114"/><path class="cls-6" d="M68.45,97.94c0,2.69-1,4.87-2.33,4.87s-2.33-2.18-2.33-4.87,1-4.86,2.33-4.86,2.33,2.18,2.33,4.86"/><path class="cls-6" d="M97,97.94c0,2.69,1,4.87,2.33,4.87s2.33-2.18,2.33-4.87-1-4.86-2.33-4.86S97,95.26,97,97.94"/><path class="cls-7" d="M58.28,87.54c2-.14,3.36-2,5-3a17,17,0,0,1,7.28-2.23c2.63-.19,2.67-4.28,0-4.13A16.71,16.71,0,0,0,61.68,81c-1.9,1.31-4.67,3.3-4.22,5.89a.85.85,0,0,0,.82.62"/><path class="cls-7" d="M108.19,86.92c.45-2.58-2.33-4.59-4.22-5.89a16.71,16.71,0,0,0-8.87-2.86c-2.67-.15-2.63,3.94,0,4.13a17,17,0,0,1,7.28,2.23c1.65,1,3,2.87,5,3a.83.83,0,0,0,.81-.62"/><path class="cls-3" d="M78.66,56.15s19.66-5,23.87,3.25,14.71,45.49,14.71,45.49V78.29A33.37,33.37,0,0,0,83.87,44.92H80.25a32,32,0,0,0-32,32v27.8s9-34.48,11.25-40.26,6.32-9.07,19.16-8.3"/><path class="cls-7" d="M89,15.59,74.74,14.08C60.17,34.7,71.62,55.29,71.62,55.29c9.66,3.73,18.62-4.54,18.62-4.54-4.61-8.2,5.16-34.48,5.16-34.48l-3.81-.21A70.25,70.25,0,0,0,81,34.67c1.74-6.42,3.92-13.28,8-19.08"/><path class="cls-7" d="M90.24,50.36c.6-4.78.64-9.55,1.81-14.27,1-4.18,2.87-8,4.49-12,.16-.38-.45-.73-.7-.41-5.49,6.88-8.43,18.14-6,26.72a.19.19,0,0,0,.37,0"/><path class="cls-4" d="M81,99c-1.24,1-1.58,3.24-1.84,4.66a41.75,41.75,0,0,0-.54,5.91,3.84,3.84,0,1,0,7.55-1,35,35,0,0,0-1.25-5.24c-.48-1.44-1.16-3.66-2.61-4.47A1.12,1.12,0,0,0,81,99"/><path class="cls-8" d="M79.73,119.35a7.63,7.63,0,0,0,7.8,1.08c2.36-.87,5.35-3.21,5.25-6,0-1.25-2-2-2.58-.69A9.12,9.12,0,0,1,80,119c-.2,0-.42.24-.22.39"/></g></g></svg>