<svg xmlns="http://www.w3.org/2000/svg" viewBox="0 0 166.67 166.67"><defs><style>.cls-1{fill:#8ed4fd;}.cls-2{fill:#efaf9d;}.cls-3{fill:#e59f8f;}.cls-4{fill:#e07c68;}.cls-5{fill:#ea9581;}.cls-6{fill:#201641;}.cls-7{fill:#ce7f63;}.cls-8{fill:#c16f56;}.cls-9{fill:#c94e4b;}.cls-10{fill:#b53939;}.cls-11{fill:#b25f4b;}.cls-12{fill:#d88d80;}</style></defs><g id="Capa_2" data-name="Capa 2"><g id="Capa_1-2" data-name="Capa 1"><rect class="cls-1" width="166.67" height="166.67"/><path class="cls-2" d="M72.53,153l-1.32,13.67H96.46l-.24-2.47C86.92,164,78,160.67,72.53,153"/><path class="cls-3" d="M75.22,125.16,72.53,153c5.46,7.69,14.39,11,23.69,11.2l-3.93-39.06Z"/><path class="cls-3" d="M57.05,108.74c0,6.28-4.7,11.38-10.5,11.38s-10.5-5.1-10.5-11.38S38.47,97,44.27,97s12.78,5.51,12.78,11.79"/><path class="cls-3" d="M110.63,108.74c0,6.28,4.7,11.38,10.5,11.38s10.5-5.1,10.5-11.38S129.21,97,123.41,97s-12.78,5.51-12.78,11.79"/><path class="cls-2" d="M92.52,146.83h0A35.12,35.12,0,0,1,48.9,109.24l2.88-28.19a32.22,32.22,0,0,1,64.12,0l2.88,28.19a35.13,35.13,0,0,1-26.26,37.59"/><path class="cls-4" d="M83.59,96.8c-2,5-3.47,10.08-2.67,15.45.49,3.35,5.78,2.46,5.79-.78,0-4.86-1.39-9.71-2-14.52a.58.58,0,0,0-1.13-.15"/><path class="cls-5" d="M77.46,113.4A13.4,13.4,0,1,1,64.06,100a13.4,13.4,0,0,1,13.4,13.4"/><path class="cls-5" d="M117,113.4a13.4,13.4,0,1,1-13.4-13.4A13.39,13.39,0,0,1,117,113.4"/><path class="cls-6" d="M69.55,97.37c0,2.69-1,4.86-2.32,4.86s-2.33-2.17-2.33-4.86,1-4.86,2.33-4.86,2.32,2.17,2.32,4.86"/><path class="cls-6" d="M68.48,93.72c.48-2.53-5.07-1.29-6.18-1.67-1.91-.65-2.62,2.25-.82,3,1.57.63,2.88.18,4.33-.49A7.43,7.43,0,0,1,67,94.05c.33-.08.72,0,1-.14.1,0,.39,0,.42-.19"/><path class="cls-6" d="M98.12,97.37c0,2.69,1,4.86,2.33,4.86s2.33-2.17,2.33-4.86-1-4.86-2.33-4.86-2.33,2.17-2.33,4.86"/><path class="cls-6" d="M99.29,93.81a9.14,9.14,0,0,0,1.37.24,13.49,13.49,0,0,1,2,.85,4.45,4.45,0,0,0,3.54.12c1.8-.71,1.09-3.62-.82-3-1.64.57-3.5-.48-5.12.28-.21.1-1.72,1.17-1,1.48"/><path class="cls-7" d="M109,64.32s8.59-21.17-6.12-32.14S28.27,40.53,45.48,97.37L50,98.52s.88-31.64,14.53-38.92S99.62,54.18,109,64.32"/><path class="cls-8" d="M109,64.32S88.22,54.93,72,62c-12.36,5.42-22.91,45-22.91,45S44,43,79.19,44.65C104.82,45.87,109,64.32,109,64.32"/><path class="cls-7" d="M109,64.11s10.06-1.36,11.28,4.76S118.54,107,118.54,107,104.91,83.57,109,64.11"/><path class="cls-7" d="M109.34,64.55c4.68-3,6.59-9.06,6.21-14.39a.75.75,0,0,0-1.47-.2c-2,4.69-2.46,9.63-5.31,14a.42.42,0,0,0,.57.58"/><path class="cls-7" d="M37.92,71.74C42.1,60.87,52.38,51.12,61.77,44.53S81.83,34,93.56,34.81a.71.71,0,0,0,.68-.89c-5.4-12.86-27.54-2.79-34.74,2.71-10.51,8-21.63,21.24-22.5,35,0,.56.75.58.92.12"/><path class="cls-7" d="M40.73,79A49.94,49.94,0,0,1,46.87,64.9c2-3.28,5.12-6.05,6.2-9.81a1.09,1.09,0,0,0-1.33-1.33C47.39,55.3,44.32,60,42.22,63.94A23.31,23.31,0,0,0,39.65,79c.08.56,1,.5,1.08,0"/><path class="cls-7" d="M108.48,64.87c-4.8,7.43-4.61,22.75.54,30,.84,1.17,2.93.87,2.89-.78-.14-5.11-2-10.15-2.46-15.29-.38-4.6.11-9.29-.62-13.84,0-.17-.27-.17-.35,0"/><path class="cls-8" d="M58.92,86.8a.05.05,0,0,0,0-.1.05.05,0,0,0,0,.1"/><path class="cls-8" d="M60.37,86a21.46,21.46,0,0,1,4.51-1.34c1.74-.33,3.34,0,5.07-.06a1,1,0,0,0,.27-2c-3.4-1.44-7.82.14-10.49,2.32-.49.4,0,1.35.64,1.1"/><path class="cls-8" d="M110.67,84.94c-2.67-2.18-7.1-3.76-10.49-2.32a1,1,0,0,0,.27,2c1.72.08,3.33-.27,5.07.06A21.46,21.46,0,0,1,110,86c.6.25,1.13-.7.64-1.1"/><path class="cls-9" d="M80.41,123.24a24,24,0,0,1,5.15-4.59c2.63-1.5,8.06-1.5,8.06-1.5s.07,7-5,8.28a8.36,8.36,0,0,1-8.17-2.19"/><path class="cls-10" d="M78.91,123.35c5.33.32,12.39-1.51,15.29-6.48.11-.19-.12-.45-.32-.32-2.33,1.52-4.12,3.5-6.73,4.64a29.17,29.17,0,0,1-8.24,2,.1.1,0,0,0,0,.19"/><path class="cls-11" d="M106.7,62.78A38.11,38.11,0,0,0,75.34,50.32a.28.28,0,0,0,0,.56A45.54,45.54,0,0,1,106.5,63a.14.14,0,0,0,.2-.2"/><path class="cls-11" d="M100.24,61.13C86.6,55.32,68.47,55.68,56.4,65c-.18.14,0,.45.19.32a51,51,0,0,1,43.46-3.75c.25.1.43-.32.19-.43"/><path class="cls-12" d="M120,103.75a5.54,5.54,0,0,1,4.7.62c1.29.91,1.42,2.24,2.08,3.53a1.09,1.09,0,0,0,2-.26c.32-2.06-1.25-4.13-3-5.16a5.87,5.87,0,0,0-6.27.15.62.62,0,0,0,.47,1.12"/><path class="cls-12" d="M47.86,103.16a6.72,6.72,0,0,0-5.35-2.37,4.36,4.36,0,0,0-4.06,2.67.7.7,0,0,0,1,.79c2.53-1.93,5-1.91,7.82-.35a.47.47,0,0,0,.56-.74"/><path class="cls-12" d="M43.43,102.2a6.38,6.38,0,0,0-.74,5.88c.53,1.59,1.7,3.78,3.68,3.49a.61.61,0,0,0,.44-.59c-.09-1.38-1.33-2.37-1.89-3.58a10.08,10.08,0,0,1-.71-5c0-.45-.57-.53-.78-.22"/><path class="cls-12" d="M122.82,103a25.11,25.11,0,0,1,.07,4.59,19.21,19.21,0,0,1-1.13,4.35.81.81,0,0,0,1.17.9c1.5-.89,1.75-2.64,1.91-4.26a10,10,0,0,0-1.23-5.79c-.19-.36-.84-.21-.79.21"/></g></g></svg>