<svg xmlns="http://www.w3.org/2000/svg" viewBox="0 0 166.67 166.67"><defs><style>.cls-1{fill:#3e92c4;}.cls-2{fill:#1b489a;}.cls-3{fill:#ea9363;}.cls-4{fill:#e08658;}.cls-5{fill:#d1744b;}.cls-6{fill:#07203e;}.cls-7{fill:#1a3f63;}.cls-8{fill:#201641;}</style></defs><g id="Capa_2" data-name="Capa 2"><g id="Capa_1-2" data-name="Capa 1"><rect class="cls-1" width="166.67" height="166.67"/><path class="cls-2" d="M46.76,99.81a48.62,48.62,0,0,0-4.65,12.44,12.05,12.05,0,0,0-.14,6.33c1.27,3.9,5.61,5.78,9.52,7a118.87,118.87,0,0,0,48,4.51c3.94-.44,8-1.14,11.28-3.39a22.17,22.17,0,0,0,5.62-6.26c1.59-2.4,3-5,3.17-7.92.15-3.47-1.67-6.73-3.82-9.46a36.83,36.83,0,0,0-9.53-8.5"/><path class="cls-2" d="M46.6,99.72c-5.06,7.91-10.42,20,.21,25.66,5.63,3,12.54,4.18,18.76,5.27a120.93,120.93,0,0,0,21.82,1.86c6.51,0,13.85-.18,20-2.43,5.32-1.93,9-6.23,11.58-11.15,5.33-10.17-3.07-20.86-12.46-25-.63-.28-1.39.48-.79,1,3.39,3.09,7.08,6.1,9.7,9.92,3.87,5.63,2.56,11-1.32,16.13-6.79,9.05-20.23,8.2-30.49,8a119,119,0,0,1-29.93-4.54c-6.38-1.81-12-4-10.63-12a61.76,61.76,0,0,1,3.85-12.67c.09-.2-.23-.31-.34-.14"/><path class="cls-3" d="M69.59,156.7l-1,10h26.9l-.8-7.92-1.65.27c-7.5,1.36-16.38,1.33-23.49-2.3"/><path class="cls-4" d="M72.89,122.44l-3.3,34.26c7.11,3.63,16,3.66,23.49,2.3l1.65-.28L91.08,122.4Z"/><path class="cls-4" d="M53.54,105c0,6.69-5,12.11-11.19,12.11S31.17,111.65,31.17,105s2.57-12.57,8.75-12.57S53.54,98.27,53.54,105"/><path class="cls-4" d="M110.62,105c0,6.69,5,12.11,11.18,12.11S133,111.65,133,105s-2.58-12.57-8.76-12.57S110.62,98.27,110.62,105"/><path class="cls-5" d="M120.59,99.6a5.85,5.85,0,0,1,5,.63c1.39,1,1.56,2.39,2.25,3.79.52,1.08,1.88.39,2-.54.27-2.08-1.66-4.31-3.36-5.25a6.23,6.23,0,0,0-6.42.25c-.57.35-.2,1.33.47,1.12"/><path class="cls-5" d="M43.73,99c-1.58-1.55-3.39-2.67-5.68-2.49a4.68,4.68,0,0,0-4.29,2.8c-.3.73.7,1,1.17.68,2.61-2.06,5.4-1.87,8.23-.25a.47.47,0,0,0,.57-.74"/><path class="cls-5" d="M39.05,98a6.81,6.81,0,0,0-.82,6c.49,1.64,1.71,4.14,3.75,4a.63.63,0,0,0,.59-.77c-.21-1.45-1.62-2.59-2.16-4a10.8,10.8,0,0,1-.58-5c.06-.45-.58-.53-.78-.22"/><path class="cls-5" d="M123.65,99a24.43,24.43,0,0,1,.07,5.13,19.71,19.71,0,0,1-1.19,4.3.81.81,0,0,0,1.17.9c3.3-2.07,2.13-7.81.72-10.65-.23-.47-.83-.11-.77.32"/><path class="cls-3" d="M82.08,146.15h0a34.49,34.49,0,0,1-34.49-34.49V79.08a34.49,34.49,0,0,1,69,0v32.58a34.49,34.49,0,0,1-34.49,34.49"/><path class="cls-6" d="M45.74,80.09c-2.47,1.14,1.85,16.83,1.85,23.66,0,0,12.29-16.83,13.1-26.88S48.21,79,45.74,80.09"/><path class="cls-6" d="M117.9,76.87l.68,3.22c2.46,1.14-1.68,16.83-1.68,23.66,0,0-12.3-16.83-13.11-26.88s14.11,0,14.11,0"/><path class="cls-2" d="M82.16,38.75h0a36.42,36.42,0,0,1,36.42,36.42v4.92H45.74V75.17A36.41,36.41,0,0,1,82.16,38.75"/><path class="cls-6" d="M91.26,73.81H72.89a3.78,3.78,0,0,1,0-7.56H91.26a3.78,3.78,0,1,1,0,7.56"/><path class="cls-6" d="M71.26,72a9.16,9.16,0,0,1-3.57-10.2A5.46,5.46,0,0,1,69.6,59a4.45,4.45,0,0,1,3.48-.66,6,6,0,0,1,3.1,1.82c.52.55.95,1.18,1.43,1.77a15.87,15.87,0,0,0,8.14,5.38"/><path class="cls-6" d="M71.5,71.86a12.05,12.05,0,0,1-2.9-7.21,6.17,6.17,0,0,1,1.28-4.17c2.23-2.17,4.47-.29,6,1.35,2.69,2.9,5.46,6.45,9.89,5.9.33,0,.6-.45.3-.72a47,47,0,0,0-4.59-3.2c-2-1.47-3.13-3.66-5-5.21-2.13-1.76-5.28-2.35-7.64-.64-5,3.66-3,12.25,2.38,14.32.22.08.47-.22.32-.42"/><path class="cls-6" d="M85.44,67c-1.14-.09-1.87-1.26-2.25-2.34a12,12,0,0,1-.65-3c-.05-.57.07-1.32.63-1.4a1.07,1.07,0,0,1,.58.12,6,6,0,0,1,2.6,2.16c.42.63.72,1.32,1.1,2a8.82,8.82,0,0,0,5.55,4"/><path class="cls-6" d="M85.46,67c-.66-.48-3.49-5.39-1.55-5.67,1.31-.19,2.72,3.36,3.28,4.16C88.54,67.4,90.57,69,93,68.9a.29.29,0,0,0,.14-.53,20.81,20.81,0,0,1-3.8-2.54c-1.16-1.12-1.63-2.53-2.56-3.8-.73-1-2.55-2.84-4-2.31-1.63.62-.87,3.26-.53,4.42.43,1.48,1.43,3.19,3.17,2.93,0,0,0-.07,0-.09"/><path class="cls-7" d="M67.13,60.35a8.61,8.61,0,0,1,5.53-1.83c2.06.15,3,1.64,4.57,2.71.25.17.49-.16.38-.39A6,6,0,0,0,73,57.56c-2.41-.3-4.34,1-5.93,2.71,0,0,0,.11.06.08"/><path class="cls-7" d="M83.19,60.5a2.38,2.38,0,0,1,1.07.6A6.23,6.23,0,0,1,85,62a.52.52,0,0,0,.9-.52,2.13,2.13,0,0,0-1.21-1.11,2.92,2.92,0,0,0-1.52-.11.15.15,0,0,0,0,.28"/><path class="cls-4" d="M75.7,114a13.41,13.41,0,1,1-13.41-13.41A13.41,13.41,0,0,1,75.7,114"/><path class="cls-4" d="M115.28,114a13.41,13.41,0,1,1-13.41-13.41A13.41,13.41,0,0,1,115.28,114"/><path class="cls-8" d="M67.78,97.93c0,2.69-1,4.87-2.33,4.87s-2.33-2.18-2.33-4.87,1.05-4.87,2.33-4.87,2.33,2.18,2.33,4.87"/><path class="cls-8" d="M96.37,97.93c0,2.69,1,4.87,2.33,4.87s2.33-2.18,2.33-4.87-1-4.87-2.33-4.87-2.33,2.18-2.33,4.87"/><path class="cls-6" d="M61.19,88.32c3.15-.06,6.34-.88,9.53-1,2.88-.13,2.9-4.63,0-4.5-3.35.16-7.49.65-10.35,2.5a1.64,1.64,0,0,0,.82,3"/><path class="cls-6" d="M104.68,85.29c-2.86-1.85-7-2.34-10.34-2.5-2.9-.13-2.89,4.37,0,4.5,3.19.15,6.37,1,9.53,1a1.64,1.64,0,0,0,.81-3"/><path class="cls-5" d="M80.86,92.71a89.23,89.23,0,0,0-1.55,13.85C79.19,109,77,119.5,81.41,119.5s2.23-10,2.12-12.46A93,93,0,0,0,82,92.71a.57.57,0,0,0-1.09,0"/><path class="cls-5" d="M80.74,125.15a8.7,8.7,0,0,0,7.59-1.94c1.87-1.47,3.87-4,3.28-6.56a.7.7,0,0,0-1.17-.31c-1.35,1.59-1.87,3.69-3.37,5.23a14,14,0,0,1-6.33,3.22.19.19,0,0,0,0,.36"/></g></g></svg>