<svg xmlns="http://www.w3.org/2000/svg" viewBox="0 0 90.34 83.31"><defs><style>.cls-1{fill:#dce4f7;}.cls-2{fill:#708ad5;}</style></defs><g id="Capa_2" data-name="Capa 2"><g id="OBJECTS"><path class="cls-1" d="M37.59,69.54a2.4,2.4,0,0,1-1.68-.69L12.49,45.77a2.39,2.39,0,0,1,3.36-3.41L37.58,63.77,84.55,17,73.21,5.77,38.66,40.25a2.39,2.39,0,0,1-3.35,0l-9.5-9.16a2.39,2.39,0,1,1,3.32-3.45l7.81,7.53L71.51.7a2.41,2.41,0,0,1,3.38,0L89.63,15.3a2.38,2.38,0,0,1,0,3.39L39.28,68.84A2.42,2.42,0,0,1,37.59,69.54Z"/><path class="cls-2" d="M37.11,83.31a2.37,2.37,0,0,1-1.7-.71L.69,47.61A2.43,2.43,0,0,1,0,45.92a2.37,2.37,0,0,1,.71-1.69L15,30.11a2.38,2.38,0,0,1,3.34,0l19.46,18.7,35.12-35a2.39,2.39,0,1,1,3.38,3.39L39.49,53.82a2.4,2.4,0,0,1-3.35,0L16.68,35.15,5.78,45.94,37.11,77.52,50.56,63.94A2.39,2.39,0,0,1,54,67.31L38.81,82.6a2.37,2.37,0,0,1-1.7.71Z"/></g></g></svg>