<svg xmlns="http://www.w3.org/2000/svg" viewBox="0 0 810.65 544.92"><defs><style>.cls-1{fill:#dce4f7;}.cls-2{fill:#e8efff;}.cls-3,.cls-5{fill:none;stroke-linecap:round;stroke-linejoin:round;}.cls-3{stroke:#fff;}.cls-4{fill:#242021;}.cls-5{stroke:#1e1609;}.cls-6{fill:#452206;}.cls-7{fill:#75332f;}.cls-8{fill:#ff8d73;}.cls-9{fill:#708ad5;}.cls-10{fill:#1e1609;}.cls-11{fill:#fff;}.cls-12{fill:#cfcfcf;}.cls-13{fill:#f0f0f0;}.cls-14{fill:#e5775c;}.cls-15{fill:#fafafa;}.cls-16{fill:#d0c9bf;}.cls-17{fill:#441b15;}.cls-18{fill:#332737;}.cls-19{fill:#fbca8c;}.cls-20{fill:#e84e4c;}.cls-21{fill:#54a194;}.cls-22{fill:#040446;}</style></defs><g id="Capa_2" data-name="Capa 2"><g id="BACKGROUND"><rect class="cls-1" width="810.65" height="544.92"/></g><g id="OBJECTS"><rect class="cls-2" x="355.63" y="24.57" width="148.17" height="343.67"/><rect class="cls-2" x="511.12" y="25.6" width="148.17" height="343.67"/><rect class="cls-3" x="531.78" y="132.7" width="23.12" height="23.12"/><rect class="cls-3" x="554.9" y="132.7" width="23.12" height="23.12"/><rect class="cls-3" x="578.02" y="132.7" width="23.12" height="23.12"/><rect class="cls-3" x="601.14" y="132.7" width="23.12" height="23.12"/><rect class="cls-3" x="624.27" y="132.7" width="23.12" height="23.12"/><rect class="cls-3" x="647.39" y="132.7" width="23.12" height="23.12"/><rect class="cls-3" x="531.78" y="155.82" width="23.12" height="23.12"/><rect class="cls-3" x="554.9" y="155.82" width="23.12" height="23.12"/><rect class="cls-3" x="578.02" y="155.82" width="23.12" height="23.12"/><rect class="cls-3" x="601.14" y="155.82" width="23.12" height="23.12"/><rect class="cls-3" x="624.27" y="155.82" width="23.12" height="23.12"/><rect class="cls-3" x="647.39" y="155.82" width="23.12" height="23.12"/><rect class="cls-3" x="531.78" y="178.94" width="23.12" height="23.12"/><rect class="cls-3" x="554.9" y="178.94" width="23.12" height="23.12"/><rect class="cls-3" x="578.02" y="178.94" width="23.12" height="23.12"/><rect class="cls-3" x="601.14" y="178.94" width="23.12" height="23.12"/><rect class="cls-3" x="624.27" y="178.94" width="23.12" height="23.12"/><rect class="cls-3" x="647.39" y="178.94" width="23.12" height="23.12"/><rect class="cls-3" x="531.78" y="202.07" width="23.12" height="23.12"/><rect class="cls-3" x="554.9" y="202.07" width="23.12" height="23.12"/><rect class="cls-3" x="578.02" y="202.07" width="23.12" height="23.12"/><rect class="cls-3" x="601.14" y="202.07" width="23.12" height="23.12"/><rect class="cls-3" x="624.27" y="202.07" width="23.12" height="23.12"/><rect class="cls-3" x="647.39" y="202.07" width="23.12" height="23.12"/><polygon class="cls-4" points="679.15 113.12 469.07 113.12 479.07 95.56 669.15 95.56 679.15 113.12"/><line class="cls-5" x1="510.55" y1="95.56" x2="510.55" y2="23.34"/><line class="cls-5" x1="637.67" y1="95.56" x2="637.67" y2="23.34"/><rect class="cls-2" x="728.43" y="24.57" width="50.33" height="343.67"/><line class="cls-5" x1="408.49" y1="271.67" x2="419.71" y2="313.79"/><line class="cls-5" x1="420.66" y1="264.94" x2="432.16" y2="311.46"/><line class="cls-5" x1="435.57" y1="260.78" x2="442.48" y2="309.33"/><line class="cls-5" x1="452.7" y1="259.89" x2="452.7" y2="309.33"/><line class="cls-5" x1="469.31" y1="262.96" x2="462.31" y2="310.6"/><line class="cls-5" x1="416.89" y1="328.82" x2="396.51" y2="440.97"/><line class="cls-5" x1="442.48" y1="328.82" x2="425.68" y2="452.97"/><line class="cls-5" x1="456.33" y1="318.92" x2="445.34" y2="444.97"/><line class="cls-5" x1="475.1" y1="328.82" x2="486.02" y2="452.97"/><ellipse class="cls-6" cx="449.21" cy="323.15" rx="37.72" ry="15.03"/><path class="cls-5" d="M405.62,274s24-23.3,67.26-10"/><line class="cls-5" x1="429.41" y1="425.42" x2="400.68" y2="418.02"/><line class="cls-5" x1="483.35" y1="422.63" x2="447.69" y2="418.02"/><line class="cls-5" x1="731.04" y1="271.67" x2="719.82" y2="313.79"/><line class="cls-5" x1="718.87" y1="264.94" x2="707.37" y2="311.46"/><line class="cls-5" x1="703.96" y1="260.78" x2="697.05" y2="309.33"/><line class="cls-5" x1="686.83" y1="259.89" x2="686.83" y2="309.33"/><line class="cls-5" x1="670.22" y1="262.96" x2="677.22" y2="310.6"/><line class="cls-5" x1="722.64" y1="328.82" x2="743.02" y2="440.97"/><line class="cls-5" x1="697.05" y1="328.82" x2="713.85" y2="452.97"/><line class="cls-5" x1="683.2" y1="318.92" x2="694.19" y2="444.97"/><line class="cls-5" x1="664.43" y1="328.82" x2="653.52" y2="452.97"/><ellipse class="cls-6" cx="690.32" cy="323.15" rx="37.72" ry="15.03"/><path class="cls-5" d="M733.91,274s-24-23.3-67.25-10"/><line class="cls-5" x1="710.12" y1="425.42" x2="738.85" y2="418.02"/><line class="cls-5" x1="656.18" y1="422.63" x2="691.84" y2="418.02"/><path class="cls-7" d="M481.62,206.43c-1.21,5.25-7.77,6.08-5.35,10.32s-2.59,9,1,17l-5.08-1.45c0-1.6.1-3.74.1-3.74a8.3,8.3,0,0,0-1.57,3.31h0l-.79-.23c-.08-2,.1-5,.1-5a10.67,10.67,0,0,0-2,4.46c-3.7-1.06-7.84-2.25-11.05-3.19a53.6,53.6,0,0,1,5.79-34.84s3.23-2.45,6-1.41,2.14,4.31,3.74,5.18S482.82,201.17,481.62,206.43Z"/><path class="cls-8" d="M468,235.09s7.41.65,9.28,3.17c2.49,3.36,9.29,46.43,9.29,46.43l-12-1.38S468.17,241.23,468,235.09Z"/><path class="cls-4" d="M403.17,390.78s-8.72,6.68-11,10.39c-1.08,1.74.63,9.29,2.14,10.25s10.85,1.7,12.33,1.23,9.68-11.46,9.68-11.46Z"/><path class="cls-8" d="M409.07,385l-5.9,5.82s-5.73,8.69-5.72,10.65c0,.71,8.79,6.52,10.14,6.75.77.13,7.45-5.9,8.7-7a63.67,63.67,0,0,0,6.67-6.34c1.45-1.89,16.77-22.47,16.77-22.47l-13.54-9.65A101.12,101.12,0,0,1,409.07,385Z"/><path class="cls-4" d="M467.32,433.76s2.48,10.7,1.89,15c-.27,2-11.24,8.86-13,8.64s-9.33-4.49-9.33-8.29c0-1.55,3.7-15.7,3.7-15.7Z"/><path class="cls-8" d="M466.47,425.51l.85,8.25s-1.11,10.35-2.37,11.86c-.45.54-14.34-.54-15.53-1.23-.68-.39,1.42-9.32,1.15-10.95s.61-10,.7-12.41.07-18.93.07-18.93l16.58,1.16S464.72,411.18,466.47,425.51Z"/><path class="cls-9" d="M479.29,290.81,435.78,293s-8.91,22.27-.94,31.13a86.74,86.74,0,0,0,22.08,17.38l-11.06,71.71L468,407.6s16.92-63.71,16.65-73.54S479.29,290.81,479.29,290.81Z"/><path class="cls-10" d="M484.65,334.06s-18.6,30.35-33,41.75l3.22-19.42Z"/><path class="cls-9" d="M505.26,323.7c.39-8.63-6.93-16.55-6.93-16.55s-30.09,1.62-35.74,3.05S415.76,378,415.76,378l15.76,14.25,53.13-58.14S504.85,333,505.26,323.7Z"/><path class="cls-10" d="M460.13,234.42l7.86.67s14.95,17.7,15.64,22.53-3.79,7.6-4.14,10S481.91,293,481.91,293H435.78l2.07-55.8,8.68-3.46Z"/><path class="cls-8" d="M446.53,233.77l3.56-17.14,14.74,4.57-4.7,13.22s2.15,22,1.22,22.26S446.53,233.77,446.53,233.77Z"/><polygon class="cls-10" points="455.68 224.66 460.13 234.42 464.02 223.88 455.68 224.66"/><path class="cls-8" d="M450.7,220.32s6,8.26,13.44,9c1.42.14,6.76-3.58,8-12.15.67-4.71,1.12-14.1-8.69-16.23S445.64,211.73,450.7,220.32Z"/><path class="cls-7" d="M468,201.16s.09,5.82-5.35,4.9c-6.49-1.11-7.81,2.07-7.81,2.07.51,4.75-4.89,6.85-4.89,6.85-.8,6.24,2.74,12.93,2.74,12.93L445.76,226c-.08-2,.1-4.93.1-4.93a10.9,10.9,0,0,0-2,4.39L442,225c0-1.24.12-2.43.12-2.43a7,7,0,0,0-1.48,2.05l-6.72-1.84c-.11-1.9-.07-4.11-.07-4.11a9.86,9.86,0,0,0-1.65,3.64l-1-.27c-.51-4.14,5.7-7.42,6.56-10.21s-2.76-4.29-2-7.57,4.75-5,7-5.35,3.71-5.92,7.16-8c5.74-3.54,12.77,2.19,12.77,2.19C466.72,194.94,468,201.16,468,201.16Z"/><path class="cls-8" d="M456.07,212.49a5.14,5.14,0,1,1-4.15-6A5.14,5.14,0,0,1,456.07,212.49Z"/><path class="cls-4" d="M461.84,213.83a.71.71,0,1,1-1.41-.05.71.71,0,0,1,1.41.05Z"/><path class="cls-4" d="M469.39,214.11a.7.7,0,1,1-.68-.73A.7.7,0,0,1,469.39,214.11Z"/><path class="cls-11" d="M460,221.85l6.25.66s-1.14,3.45-3.25,3.23C459.56,225.39,460,221.85,460,221.85Z"/><path class="cls-5" d="M466.52,214.5a3,3,0,0,0,.85,3.77c.51.39-1.88,1.12-2.84.87"/><path class="cls-5" d="M449.14,210.76s1-1,1.62-.7a6.55,6.55,0,0,1,1.92,3.33"/><path class="cls-7" d="M459.38,211a3.31,3.31,0,0,1,2.64-1.48c1.35,0,1.78,1.21,1.56,1.48s-.95-.17-2.07-.15S459.37,211.34,459.38,211Z"/><path class="cls-7" d="M470.91,211.74a3.37,3.37,0,0,0-2.4-1.85c-1.33-.2-1.94.94-1.76,1.24s1,0,2.07.15S470.87,212.05,470.91,211.74Z"/><path class="cls-3" d="M461.77,264.53s1.23,5-1.36,6.87c-3.64,2.69-8.63-1.11-8.63-1.11"/><path class="cls-3" d="M479.49,267.64a13.76,13.76,0,0,1-9.84,3.76"/><polygon class="cls-12" points="449.94 311.28 433.55 299.91 433.89 298.68 484.65 295.4 512.57 305.93 449.94 311.28"/><path class="cls-8" d="M437.85,237.23c-10.09-.57-24.59,44.93-20.77,50.11,2.47,3.34,43.31,17.72,43.31,17.72l3.14-6.56-32-18.06S447.79,237.79,437.85,237.23Z"/><polygon class="cls-11" points="449.94 311.28 457.95 274.07 520.59 268.73 512.57 305.93 449.94 311.28"/><path class="cls-5" d="M444.59,333.29s9.86-12.91,12.33-16.4,3.58-6.51,12.73-7.3"/><line class="cls-5" x1="484.65" y1="334.06" x2="488.46" y2="327.62"/><polygon class="cls-13" points="433.55 299.91 433.89 298.68 449.17 308.43 456.33 274.07 457.95 274.07 449.94 311.28 433.55 299.91"/><path class="cls-5" d="M431.52,280.44s-3.82,0-5.43,1.15"/><line class="cls-5" x1="447.39" y1="401.79" x2="470.15" y2="397.92"/><line class="cls-5" x1="421.4" y1="367.42" x2="439.73" y2="381.47"/><path class="cls-13" d="M493.22,289.45a4.76,4.76,0,1,1-4.76-4.76A4.76,4.76,0,0,1,493.22,289.45Z"/><path class="cls-14" d="M600.51,377l-10.17,28.7s-18.59-1.55-25.64-9.74c0,0,8.49-7.67,11.11-11S582,370,582,370Z"/><path class="cls-15" d="M595.07,394.3c-1.21-.3-5.22,6.12-7.18,6s-5.52.31-7.39-3.18-3.28-5.77-3.28-5.77,1.76-1.43,1.6-2.63-3.44-4.53-4.45-5-14.45,9.19-17.24,10.29-9.33.55-11.34-.09-4.57,2.36-5.23,4.44-.53,4.34-.09,4.86,20.29,6.29,26,7.86,19.13,3.94,21.9,4.36,5.42-.72,6.09-1.65S598.12,395,595.07,394.3Z"/><path class="cls-5" d="M577.22,391.38c-1.68-.91-4.22-1.31-7.65,1.41A50.41,50.41,0,0,1,559,398.68c-1,.29-5-.77-4.79-4"/><path class="cls-5" d="M596.14,404.06a14.1,14.1,0,0,1-7.54-3.92"/><path class="cls-5" d="M595.13,411.15s-4.12,1.2-15.77-1-33.29-7.94-39-11.14"/><line class="cls-5" x1="567.6" y1="386.79" x2="569.1" y2="391.99"/><line class="cls-5" x1="572.01" y1="389.61" x2="564.65" y2="388.83"/><line class="cls-5" x1="563.1" y1="389.57" x2="564.2" y2="394.87"/><line class="cls-5" x1="567.28" y1="392.71" x2="560" y2="391.39"/><line class="cls-5" x1="558.7" y1="392.05" x2="559.29" y2="397.44"/><line class="cls-5" x1="562.57" y1="395.59" x2="555.44" y2="393.57"/><path class="cls-14" d="M622.24,391,615,420.56s-18.65.31-26.48-7.14c0,0,7.67-8.47,10-12.08s4.68-15.42,4.68-15.42Z"/><path class="cls-15" d="M618.57,408.78c-1.24-.17-4.6,6.62-6.55,6.73s-5.46.85-7.67-2.44-3.84-5.42-3.84-5.42,1.6-1.59,1.33-2.76-3.88-4.17-4.92-4.5-13.46,10.59-16.13,12-9.23,1.47-11.29,1-4.31,2.81-4.76,4.94-.1,4.37.39,4.84,20.82,4.24,26.63,5.24,19.42,2,22.22,2.15,5.32-1.26,5.9-2.25S621.67,409.21,618.57,408.78Z"/><path class="cls-5" d="M600.51,407.65c-1.76-.73-4.33-.87-7.48,2.17a49.28,49.28,0,0,1-10,6.92c-1,.39-5.06-.26-5.17-3.54"/><path class="cls-5" d="M620.6,418.39a14.11,14.11,0,0,1-7.89-3.15"/><path class="cls-5" d="M620.3,425.54s-4,1.61-15.79.62-33.91-4.58-39.88-7.19"/><line class="cls-5" x1="590.48" y1="404.05" x2="592.49" y2="409.08"/><line class="cls-5" x1="595.15" y1="406.42" x2="587.75" y2="406.38"/><line class="cls-5" x1="586.28" y1="407.27" x2="587.9" y2="412.43"/><line class="cls-5" x1="590.76" y1="409.98" x2="583.38" y2="409.39"/><line class="cls-5" x1="582.15" y1="410.18" x2="583.27" y2="415.48"/><line class="cls-5" x1="586.35" y1="413.31" x2="579.06" y2="412.01"/><polygon class="cls-8" points="637.3 246.22 623.43 264.22 638.08 277.63 655.67 257.46 637.3 246.22"/><path class="cls-9" d="M706.45,254.63c2,20,6.82,52,6.82,52h-70.8l10.14-47L630,246.21s20.72-22,25.34-23.5,18.45-3.66,18.45-3.66l13.19-.38s11.36,1.46,18.32,2.66c5.69,1,24.24,27.07,24.24,27.07l-13.78,14.23Z"/><line class="cls-5" x1="711.46" y1="296.38" x2="647.98" y2="293.8"/><path class="cls-16" d="M712.4,301.36s5.68,22.61.65,26.63-37.17,5-45.61,2.87c-2-.52-33.72-29.52-33.72-29.52l-25.14,79-31.31-10.92s31.53-89,44-91.34c15.75-2.94,70.33,22.74,70.33,22.74Z"/><path class="cls-16" d="M633.72,301.34c-8,.5-38.53,86.47-38.53,86.47l32,15.18,21.12-77s12.07,2.37,19.11,4.88,14.52-17.95,7.26-26.5S633.72,301.34,633.72,301.34Z"/><line class="cls-5" x1="691.61" y1="300.83" x2="695.91" y2="305.36"/><line class="cls-5" x1="634.93" y1="242.05" x2="654.34" y2="254.63"/><line class="cls-5" x1="724.88" y1="242.1" x2="709.6" y2="257.79"/><path class="cls-10" d="M706.45,254.63l-7.21-8.42s-.07,12.85,8.09,16.42Z"/><line class="cls-5" x1="653.49" y1="259.59" x2="657.19" y2="238.18"/><path class="cls-8" d="M718.33,260l-41,16.47,1.2,8.46s59.06-4,63-16.33c2.26-7-12.05-20.18-12.05-20.18Z"/><path class="cls-8" d="M662.6,282.52c.63-1.31,3.52-.5,3.52-.5a7.55,7.55,0,0,0,4.6,4c1.3.37,7.08-.33,7.85-1.06l-1.2-8.46s-8.61-1.53-10.58-.9c-1.12.35-7.11,4.16-7.21,4.79s-.46,4.91.61,5.08S662.08,283.6,662.6,282.52Z"/><line class="cls-5" x1="718.33" y1="259.98" x2="725.83" y2="259.33"/><line class="cls-5" x1="677.37" y1="276.45" x2="680.39" y2="278.09"/><polygon class="cls-8" points="686.45 201.89 687.86 218.67 679.08 227.66 674.67 219.05 673.32 202.99 686.45 201.89"/><polygon class="cls-10" points="681.77 209.56 674.67 219.05 673.92 210.22 681.77 209.56"/><path class="cls-8" d="M682.32,212s-13.21,4.19-16.6,1c-2.75-2.56-2.23-22.93,0-24.14s13.76-1.72,15.93-1c1.75.57,3.21,3.23,4,7.71C686.25,198.66,685.43,208.54,682.32,212Z"/><path class="cls-17" d="M658.35,190.08c.52,2.69,15.48,2,23.72.56,0,0-4.22,6.15,1.28,8.45,3.69,1.54,8.89-1.62,8.89-1.62s-.15-17.55-1.91-18.59-8-.73-8-.73-19.08-2.87-22-2,1.81,4.75,1.81,4.75-5.76-.38-5.77.91c0,2.56,6.13,4.84,6.13,4.84S657.84,187.42,658.35,190.08Z"/><path class="cls-5" d="M671.4,199.91l-.16,2s-2.73-.16-2.57,1,1.33,1.67,3.13,1.4"/><circle class="cls-8" cx="687.62" cy="199.09" r="5.3" transform="translate(376.36 843.74) rotate(-80.37)"/><path class="cls-5" d="M686.89,202.35s3.23-.22,3.06-2.49a3,3,0,0,0-3.38-2.92"/><path class="cls-17" d="M678.09,195.14a3,3,0,0,0-2.29-1.32c-1.18,0-1.57,1-1.38,1.27s.79-.2,1.76-.17S678.09,195.41,678.09,195.14Z"/><path class="cls-17" d="M665.79,195.55a2.92,2.92,0,0,1,2.19-1.48c1.17-.1,1.64.92,1.47,1.17s-.8-.14-1.77,0S665.81,195.83,665.79,195.55Z"/><path class="cls-5" d="M676,206.61a3.2,3.2,0,0,1-2.52,1.64"/><path class="cls-5" d="M676.9,199.9s-.1-2.85-1.15-3.1-2,2.64-2,2.64"/><path class="cls-5" d="M669.05,200.09s-.09-2.86-1.14-3.1-2,2.64-2,2.64"/><polygon class="cls-11" points="694.13 292.79 694.63 288.88 651.97 283.47 638.08 248.4 584.78 241.64 598.94 280.72 694.13 292.79"/><path class="cls-13" d="M621,265.87a4.76,4.76,0,1,1-4.75-4.76A4.75,4.75,0,0,1,621,265.87Z"/><polygon class="cls-18" points="641.78 248.87 655.67 283.94 651.97 283.47 638.08 248.4 641.78 248.87"/><path class="cls-10" d="M667.44,330.86l-33.72-29.52s7.47,17.15,14.61,24.64Z"/><polyline class="cls-5" points="635.29 296.38 608.58 380.35 599.09 377.04"/><line class="cls-5" x1="582.15" y1="358.55" x2="611.87" y2="370.01"/><line class="cls-5" x1="630.03" y1="392.71" x2="597.88" y2="380.35"/><polygon class="cls-11" points="674.39 215.82 669.91 219.68 671.23 229.79 675.1 226.59 679.08 227.66 683.94 226.96 687.26 231.34 692.93 219.47 687.62 215.29 687.86 218.67 679.08 227.66 674.67 219.05 674.39 215.82"/><line class="cls-5" x1="679.08" y1="227.66" x2="678.51" y2="231.34"/><polyline class="cls-5" points="499.88 295.15 488.37 472.44 617.4 440.84 612.47 292.54"/><polyline class="cls-5" points="638.34 295.15 649.85 472.44 520.82 440.84 525.75 292.54"/><ellipse class="cls-6" cx="569.11" cy="288.99" rx="84.03" ry="9.59"/><path class="cls-10" d="M588.19,267.91l-.45,5.13-.85,10-.34,3.85a14.65,14.65,0,0,1-16.25,0L570,283l-.86-10-.44-5.13Z"/><path class="cls-16" d="M588.9,264.56l-.48,5.5-.92,10.73-.36,4.13a15.7,15.7,0,0,1-17.43,0l-.35-4.14-.93-10.72-.47-5.5Z"/><path class="cls-11" d="M589.09,264.76c0,1.22-4.75,2.21-10.61,2.21s-10.61-1-10.61-2.21v-1.11h21.22Z"/><ellipse class="cls-10" cx="578.48" cy="263.65" rx="10.61" ry="2.21"/><rect class="cls-19" x="566.46" y="167.38" width="21.15" height="29.17" transform="translate(-16.25 63.27) rotate(-6.19)"/><rect class="cls-20" x="592.15" y="183.67" width="23.88" height="29.17" transform="translate(7.51 -21.58) rotate(2.06)"/><rect class="cls-9" x="630.82" y="148.02" width="21.21" height="26.55" transform="translate(15.02 -50.98) rotate(4.61)"/><rect class="cls-10" x="541.97" y="194.68" width="21.21" height="21.21" transform="translate(-9.72 28.34) rotate(-2.91)"/><path class="cls-11" d="M532.3,263.85c0,13.94,6.49,20,6.49,20h11.89s6.48-6,6.48-20Z"/><path class="cls-21" d="M546.07,263.36a9.19,9.19,0,0,1,2-7.23A12.73,12.73,0,0,1,554.5,252c1.42-.41,2.9-.62,4.29-1.12a5.76,5.76,0,0,0,3.36-2.72c1-2.11,0-4.57-1.06-6.67-.43-.89-.73-1.55-1.16-2.43a9.65,9.65,0,0,1-5,7.28c-1.7.9-3.63,1.27-5.38,2.06s-4.28,1.38-4.49,3.3c.69-4.56-.1-9.53,2.15-13.55,1.08-1.93,2.79-3.48,3.66-5.51,1.44-3.34,1.1-8.11-1.31-10.83q-2.49,3.36-5,6.71a16.15,16.15,0,0,0-2.83,5c-1,3.6.52,7.38.84,11.11a14.14,14.14,0,0,1-.87,6.6,10.25,10.25,0,0,0-3.21-7.07c-1-1-2.26-1.71-3.28-2.7-2.36-2.27-3.72-5.65-4.64-8.79-2.17,2.53-1.52,6.5.25,9.32s4.45,5,6.46,7.62a20.09,20.09,0,0,1,4,13.88C542.62,264.05,544.62,263.54,546.07,263.36Z"/><rect class="cls-22" x="532.3" y="261.16" width="24.86" height="2.68"/></g></g></svg>