<svg xmlns="http://www.w3.org/2000/svg" viewBox="0 0 292.09 79.91"><defs><style>.cls-1{fill:#e8efff;}</style></defs><g id="Capa_2" data-name="Capa 2"><g id="OBJECTS"><path class="cls-1" d="M46.78,16.45c0,.59-.32.89-1,.89q-1.7,0-13.35-.67-.27,11.22-.27,15.66,0,5.22.42,15.74T33,63.81c0,.56-.14.92-.4,1.06a5.25,5.25,0,0,1-1.25.23,65.19,65.19,0,0,1-7.8.35,62.69,62.69,0,0,1-8-.35,1.31,1.31,0,0,1-1.24-1.38q0-5.23.45-15.7c.29-7,.44-12.21.44-15.69q0-3.46-.36-15.43Q6,17.78.71,17.78c-.47,0-.71-.15-.71-.44a26.67,26.67,0,0,1,.62-3.42c.47-2.06.74-3.32.8-3.77.09-1.38.19-2.77.31-4.16.21-2.22.56-3.33,1.06-3.33l.62,0a179.23,179.23,0,0,0,21.24.93c2.67,0,7.57-.28,14.73-.85l5.81-.44a2.51,2.51,0,0,1,1,.11,1.78,1.78,0,0,1,.17.87c0,.79,0,1.9-.09,3.32-.06,1.57-.08,2.68-.08,3.33a26.87,26.87,0,0,0,.28,3.26A25,25,0,0,1,46.78,16.45Z"/><path class="cls-1" d="M95.78,42.92q0,3.42.4,10.16t.4,10.11c0,1.18-.52,1.82-1.55,1.91q-5.5.39-12.6.4c-.56,0-.93-.85-1.13-2.55s-.42-2.57-.68-2.6a3.89,3.89,0,0,0-.93.76c-3.32,3.34-6.86,5-10.65,5a17.85,17.85,0,0,1-14.32-6.83A22.94,22.94,0,0,1,49.35,44q0-10.24,5.55-16.49,5.76-6.48,15.78-6.48a13.53,13.53,0,0,1,11,4.88c.12.15.22.22.31.22.27,0,.57-.71.91-2.15s.75-2.15,1.22-2.15a39,39,0,0,1,6.25.93,63.65,63.65,0,0,1,6.3,1.51c.44.18.66.41.66.71a7.28,7.28,0,0,1-.13.93A97.07,97.07,0,0,0,95.78,42.92Zm-14.28.27A8.62,8.62,0,0,0,79.13,37a9,9,0,0,0-12.35,0,8.61,8.61,0,0,0-2.35,6.25,8.57,8.57,0,0,0,2.48,6.16,8.07,8.07,0,0,0,6,2.58,8.23,8.23,0,0,0,6.17-2.46A8.68,8.68,0,0,0,81.5,43.19Z"/><path class="cls-1" d="M130.55,29.22a2.16,2.16,0,0,1-.67,1.2,10,10,0,0,0-2.48-.31A7.86,7.86,0,0,0,123,31.26,4.22,4.22,0,0,0,120.88,35c0,1,.75,2.35,2.26,3.95a43.13,43.13,0,0,1,4.21,4.83A12.74,12.74,0,0,1,129.62,51a14.53,14.53,0,0,1-.89,4.79,9.41,9.41,0,0,1-2.57,4.08,30.75,30.75,0,0,1-7.68,4.79,22.26,22.26,0,0,1-8.73,2c-.59,0-1.92-1.61-4-4.81s-3.08-5.17-3.08-5.88c0-.27.16-.43.49-.49l6.25-1.15q3.9-1.24,3.9-4.08,0-1.95-2.26-4.52c-2.69-3-4.1-4.57-4.21-4.75a11.45,11.45,0,0,1-2.26-6.74q0-6.64,6.74-11.31a22.5,22.5,0,0,1,12.9-4.12q.7,0,3.5,4.77T130.55,29.22Z"/><path class="cls-1" d="M186.2,36.14q0,9.8-9.62,14.9c-.6.3-.89.61-.89.93q0,.75,4.12,6.28A64.76,64.76,0,0,1,183.94,64q0,1.2-11.75,1.2c-3,0-4.76-.38-5.24-1.15q-1.77-3-5.54-8.52c-.15-.18-2.81-.38-8-.62,0,.92,0,2.38,0,4.39s.05,3.5.05,4.48a1.29,1.29,0,0,1-1.29,1.46q-.79.09-7,.09a59.58,59.58,0,0,1-6.25-.17c-.8-.15-1.2-.76-1.2-1.82V36.23q0-5.46-.39-16.32T137,3.64c0-.71.4-1.08,1.19-1.11q2.36,0,7.05-.09c.83-.06,2.27-.24,4.31-.53a30.33,30.33,0,0,1,4.25-.4c.48,0,.71.43.71,1.28,0,1.13-.09,2.65-.26,4.57-.21,2.25-.33,3.79-.36,4.61q-.39,9.54-.4,14.77c0,.83.11,1.26.31,1.29a7.4,7.4,0,0,0,1.07-1,18.72,18.72,0,0,1,14-6q7.75,0,12.33,3.55Q186.2,28.56,186.2,36.14ZM168.59,39q0-5.35-6.07-5.36a10.52,10.52,0,0,0-5.77,2c-2.18,1.45-3.28,3-3.28,4.74,0,2.46.34,3.93,1,4.44.53.35,2.23.53,5.1.53Q168.59,45.41,168.59,39Z"/><path class="cls-1" d="M207.93,44.74q0,3.24.13,9.65t.13,9.6q0,.93-1.11,1.11a53.21,53.21,0,0,1-6.78.26,53.87,53.87,0,0,1-6.83-.26c-.65-.12-1.05-.31-1.2-.58a5,5,0,0,1-.09-1.33q0-3.06.14-9.2t.13-9.25a161.92,161.92,0,0,0-1-20,8.38,8.38,0,0,1-.08-.93c0-.59.39-.89,1.19-.89s2.09.09,3.79.27,3,.26,3.84.26,2.14-.07,3.86-.22,3-.22,3.86-.22c.71,0,1.06.3,1.06.89q0,.18-.09.84A181.21,181.21,0,0,0,207.93,44.74Zm1.15-32.94q0,7.71-8.69,7.71a9.57,9.57,0,0,1-6.17-2,7,7,0,0,1-2.66-5.76,7,7,0,0,1,2.75-5.68,9.38,9.38,0,0,1,6.08-2,9.09,9.09,0,0,1,6,2.08A7,7,0,0,1,209.08,11.8Z"/><path class="cls-1" d="M243.76,36.49c0,.71-.39,1.07-1.16,1.07q-4.78,0-7.54-.27.13,3.33.27,9.27c0,1.69.16,4.61.4,8.78.21,3.76.31,6.68.31,8.78,0,.62-.41,1-1.24,1.07q-1.52.16-7.54.17a50.24,50.24,0,0,1-6.52-.26,1.67,1.67,0,0,1-1.51-1.82V38.84c0-.85-.59-1.28-1.77-1.28-.21,0-.54,0-1,0s-.79,0-1,0c-.82,0-1.25-.24-1.28-.71q-.41-3.86-.4-11.22a1.88,1.88,0,0,1,1.68-2c1-.08,2-.16,3.06-.22-.14-2.36-.22-4.21-.22-5.54q0-7.62,3-11.09Q227.16,0,240.34,0c.59,0,.95.18,1.06.53q.36,2,1,5.9c0,.24.22,1.06.57,2.48a11.43,11.43,0,0,1,.4,2.53q0,1.07-3.15,1.38c-2.42.26-3.92.7-4.48,1.33q-1.46,1.59-1.46,6.25a16,16,0,0,0,.22,2.75c.83,0,2.11,0,3.86-.09s3.06-.09,4-.09,1.33.33,1.33,1q0,2.09,0,6.27C243.74,33,243.76,35.11,243.76,36.49Z"/><path class="cls-1" d="M292.09,33.48q0,8.6-.53,10.46-.68,2.22-9.71,16.06-1.43,2.18-7.32,10.06c-4.35,5.8-6.81,8.86-7.41,9.18s-5.24.67-13.61.67a5,5,0,0,1-2.57-.45c-.39-1.21-.87-2.64-1.46-4.3-.48-1-.95-2.08-1.42-3.15A10,10,0,0,1,247,69q0-.84.75-.84,12.33,0,12.33-5.63,0-.49-6-8.82-6.26-8.56-6.88-10.82-.35-1.29-.35-9.18c0-1.07,0-2.67.09-4.81S247,25.1,247,24c0-.76.48-1.15,1.46-1.15,1.51,0,3.79.05,6.85.13s5.34.14,6.85.14c.62,0,.93.46.93,1.37s0,2.08-.13,3.75-.13,2.92-.13,3.75q0,5.58.17,7.58c.09,1,1,3,2.67,5.76s3.06,4.39,3.85,4.39,1.84-1.44,3.46-4.34a20.81,20.81,0,0,0,2.44-5.55,74.14,74.14,0,0,0,.44-8.46c0-.8-.07-2-.22-3.64s-.22-2.85-.22-3.68q0-.84.93-.84,2.26,0,6.76-.18t6.77-.18A1.54,1.54,0,0,1,291.47,24Q292.08,26.07,292.09,33.48Z"/></g></g></svg>